<mxfile host="Electron" agent="Mozilla/5.0 (Windows NT 10.0; Win64; x64) AppleWebKit/537.36 (KHTML, like Gecko) draw.io/24.7.17 Chrome/128.0.6613.36 Electron/32.0.1 Safari/537.36" version="24.7.17">
  <diagram name="Page-1" id="7UWGl-7bPe17A0hntDEX">
    <mxGraphModel dx="2421" dy="1006" grid="1" gridSize="10" guides="1" tooltips="1" connect="1" arrows="1" fold="1" page="1" pageScale="1" pageWidth="827" pageHeight="1169" math="0" shadow="0">
      <root>
        <mxCell id="0" />
        <mxCell id="1" parent="0" />
        <mxCell id="fKlH0sMBrAGrj7XQ3FqQ-2" style="edgeStyle=orthogonalEdgeStyle;rounded=0;orthogonalLoop=1;jettySize=auto;html=1;" parent="1" source="fKlH0sMBrAGrj7XQ3FqQ-67" target="fKlH0sMBrAGrj7XQ3FqQ-4" edge="1">
          <mxGeometry relative="1" as="geometry">
            <mxPoint x="400" y="180" as="targetPoint" />
          </mxGeometry>
        </mxCell>
        <mxCell id="fKlH0sMBrAGrj7XQ3FqQ-1" value="Début de la&lt;div&gt;fonction&lt;/div&gt;" style="rounded=1;whiteSpace=wrap;html=1;" parent="1" vertex="1">
          <mxGeometry x="-110" y="30" width="120" height="60" as="geometry" />
        </mxCell>
        <mxCell id="fKlH0sMBrAGrj7XQ3FqQ-51" style="edgeStyle=orthogonalEdgeStyle;rounded=0;orthogonalLoop=1;jettySize=auto;html=1;entryX=0;entryY=0.5;entryDx=0;entryDy=0;" parent="1" source="fKlH0sMBrAGrj7XQ3FqQ-4" target="fKlH0sMBrAGrj7XQ3FqQ-49" edge="1">
          <mxGeometry relative="1" as="geometry" />
        </mxCell>
        <mxCell id="fKlH0sMBrAGrj7XQ3FqQ-57" style="edgeStyle=orthogonalEdgeStyle;rounded=0;orthogonalLoop=1;jettySize=auto;html=1;" parent="1" source="fKlH0sMBrAGrj7XQ3FqQ-4" target="fKlH0sMBrAGrj7XQ3FqQ-56" edge="1">
          <mxGeometry relative="1" as="geometry">
            <Array as="points">
              <mxPoint x="450" y="220" />
              <mxPoint x="354" y="220" />
            </Array>
          </mxGeometry>
        </mxCell>
        <mxCell id="fKlH0sMBrAGrj7XQ3FqQ-78" style="edgeStyle=orthogonalEdgeStyle;rounded=0;orthogonalLoop=1;jettySize=auto;html=1;entryX=0.5;entryY=0;entryDx=0;entryDy=0;exitX=0.5;exitY=1;exitDx=0;exitDy=0;" parent="1" source="fKlH0sMBrAGrj7XQ3FqQ-4" target="fKlH0sMBrAGrj7XQ3FqQ-5" edge="1">
          <mxGeometry relative="1" as="geometry">
            <Array as="points">
              <mxPoint x="450" y="220" />
              <mxPoint x="550" y="220" />
            </Array>
          </mxGeometry>
        </mxCell>
        <mxCell id="fKlH0sMBrAGrj7XQ3FqQ-92" style="edgeStyle=orthogonalEdgeStyle;rounded=0;orthogonalLoop=1;jettySize=auto;html=1;" parent="1" source="fKlH0sMBrAGrj7XQ3FqQ-4" edge="1">
          <mxGeometry relative="1" as="geometry">
            <mxPoint x="450" y="220" as="targetPoint" />
          </mxGeometry>
        </mxCell>
        <mxCell id="fKlH0sMBrAGrj7XQ3FqQ-4" value="Parcourir la chaîne de format" style="rounded=1;whiteSpace=wrap;html=1;" parent="1" vertex="1">
          <mxGeometry x="390" y="30" width="120" height="60" as="geometry" />
        </mxCell>
        <mxCell id="fKlH0sMBrAGrj7XQ3FqQ-15" style="edgeStyle=orthogonalEdgeStyle;rounded=0;orthogonalLoop=1;jettySize=auto;html=1;entryX=0.5;entryY=0;entryDx=0;entryDy=0;exitX=1;exitY=0.5;exitDx=0;exitDy=0;" parent="1" source="fKlH0sMBrAGrj7XQ3FqQ-5" target="fKlH0sMBrAGrj7XQ3FqQ-14" edge="1">
          <mxGeometry relative="1" as="geometry">
            <Array as="points">
              <mxPoint x="880" y="330" />
            </Array>
          </mxGeometry>
        </mxCell>
        <mxCell id="fKlH0sMBrAGrj7XQ3FqQ-5" value="Caractère &#39;%&#39; ?" style="rhombus;whiteSpace=wrap;html=1;" parent="1" vertex="1">
          <mxGeometry x="490" y="270" width="120" height="120" as="geometry" />
        </mxCell>
        <mxCell id="fKlH0sMBrAGrj7XQ3FqQ-75" style="edgeStyle=orthogonalEdgeStyle;rounded=0;orthogonalLoop=1;jettySize=auto;html=1;entryX=1;entryY=0.5;entryDx=0;entryDy=0;exitX=1;exitY=0.5;exitDx=0;exitDy=0;" parent="1" source="fKlH0sMBrAGrj7XQ3FqQ-14" target="fKlH0sMBrAGrj7XQ3FqQ-18" edge="1">
          <mxGeometry relative="1" as="geometry">
            <Array as="points">
              <mxPoint x="960" y="410" />
              <mxPoint x="960" y="615" />
            </Array>
          </mxGeometry>
        </mxCell>
        <mxCell id="fKlH0sMBrAGrj7XQ3FqQ-76" style="edgeStyle=orthogonalEdgeStyle;rounded=0;orthogonalLoop=1;jettySize=auto;html=1;entryX=1;entryY=0.5;entryDx=0;entryDy=0;exitX=1;exitY=0.5;exitDx=0;exitDy=0;" parent="1" source="fKlH0sMBrAGrj7XQ3FqQ-14" target="fKlH0sMBrAGrj7XQ3FqQ-19" edge="1">
          <mxGeometry relative="1" as="geometry" />
        </mxCell>
        <mxCell id="fKlH0sMBrAGrj7XQ3FqQ-77" style="edgeStyle=orthogonalEdgeStyle;rounded=0;orthogonalLoop=1;jettySize=auto;html=1;entryX=1;entryY=0.5;entryDx=0;entryDy=0;exitX=1;exitY=0.5;exitDx=0;exitDy=0;" parent="1" source="fKlH0sMBrAGrj7XQ3FqQ-14" target="fKlH0sMBrAGrj7XQ3FqQ-20" edge="1">
          <mxGeometry relative="1" as="geometry" />
        </mxCell>
        <mxCell id="fKlH0sMBrAGrj7XQ3FqQ-100" style="edgeStyle=orthogonalEdgeStyle;rounded=0;orthogonalLoop=1;jettySize=auto;html=1;entryX=1;entryY=0.5;entryDx=0;entryDy=0;" parent="1" source="fKlH0sMBrAGrj7XQ3FqQ-14" target="fKlH0sMBrAGrj7XQ3FqQ-96" edge="1">
          <mxGeometry relative="1" as="geometry">
            <Array as="points">
              <mxPoint x="960" y="410" />
              <mxPoint x="960" y="1129" />
            </Array>
          </mxGeometry>
        </mxCell>
        <mxCell id="fKlH0sMBrAGrj7XQ3FqQ-112" style="edgeStyle=orthogonalEdgeStyle;rounded=0;orthogonalLoop=1;jettySize=auto;html=1;entryX=1;entryY=0.5;entryDx=0;entryDy=0;" parent="1" source="fKlH0sMBrAGrj7XQ3FqQ-14" target="fKlH0sMBrAGrj7XQ3FqQ-18" edge="1">
          <mxGeometry relative="1" as="geometry">
            <Array as="points">
              <mxPoint x="960" y="410" />
              <mxPoint x="960" y="615" />
            </Array>
          </mxGeometry>
        </mxCell>
        <mxCell id="ggIqziUd1L6ZRsZxqIfa-4" style="edgeStyle=orthogonalEdgeStyle;rounded=0;orthogonalLoop=1;jettySize=auto;html=1;entryX=1;entryY=0.5;entryDx=0;entryDy=0;" edge="1" parent="1" source="fKlH0sMBrAGrj7XQ3FqQ-14" target="ggIqziUd1L6ZRsZxqIfa-2">
          <mxGeometry relative="1" as="geometry">
            <Array as="points">
              <mxPoint x="960" y="410" />
              <mxPoint x="960" y="1230" />
            </Array>
          </mxGeometry>
        </mxCell>
        <mxCell id="fKlH0sMBrAGrj7XQ3FqQ-14" value="OUI" style="ellipse;whiteSpace=wrap;html=1;" parent="1" vertex="1">
          <mxGeometry x="820" y="370" width="120" height="80" as="geometry" />
        </mxCell>
        <mxCell id="fKlH0sMBrAGrj7XQ3FqQ-37" style="edgeStyle=orthogonalEdgeStyle;rounded=0;orthogonalLoop=1;jettySize=auto;html=1;entryX=1;entryY=0.5;entryDx=0;entryDy=0;" parent="1" source="fKlH0sMBrAGrj7XQ3FqQ-65" target="fKlH0sMBrAGrj7XQ3FqQ-36" edge="1">
          <mxGeometry relative="1" as="geometry" />
        </mxCell>
        <mxCell id="fKlH0sMBrAGrj7XQ3FqQ-40" style="edgeStyle=orthogonalEdgeStyle;rounded=0;orthogonalLoop=1;jettySize=auto;html=1;entryX=1;entryY=0.5;entryDx=0;entryDy=0;" parent="1" source="fKlH0sMBrAGrj7XQ3FqQ-64" target="fKlH0sMBrAGrj7XQ3FqQ-38" edge="1">
          <mxGeometry relative="1" as="geometry" />
        </mxCell>
        <mxCell id="fKlH0sMBrAGrj7XQ3FqQ-41" style="edgeStyle=orthogonalEdgeStyle;rounded=0;orthogonalLoop=1;jettySize=auto;html=1;entryX=1;entryY=0.5;entryDx=0;entryDy=0;" parent="1" source="fKlH0sMBrAGrj7XQ3FqQ-61" target="fKlH0sMBrAGrj7XQ3FqQ-39" edge="1">
          <mxGeometry relative="1" as="geometry" />
        </mxCell>
        <mxCell id="fKlH0sMBrAGrj7XQ3FqQ-27" style="edgeStyle=orthogonalEdgeStyle;rounded=0;orthogonalLoop=1;jettySize=auto;html=1;entryX=1;entryY=0.5;entryDx=0;entryDy=0;" parent="1" source="fKlH0sMBrAGrj7XQ3FqQ-85" target="fKlH0sMBrAGrj7XQ3FqQ-26" edge="1">
          <mxGeometry relative="1" as="geometry" />
        </mxCell>
        <mxCell id="fKlH0sMBrAGrj7XQ3FqQ-20" value="%s" style="rounded=1;whiteSpace=wrap;html=1;" parent="1" vertex="1">
          <mxGeometry x="820" y="800" width="120" height="60" as="geometry" />
        </mxCell>
        <mxCell id="fKlH0sMBrAGrj7XQ3FqQ-30" style="edgeStyle=orthogonalEdgeStyle;rounded=0;orthogonalLoop=1;jettySize=auto;html=1;" parent="1" source="fKlH0sMBrAGrj7XQ3FqQ-26" target="fKlH0sMBrAGrj7XQ3FqQ-28" edge="1">
          <mxGeometry relative="1" as="geometry">
            <Array as="points">
              <mxPoint x="460" y="930" />
            </Array>
          </mxGeometry>
        </mxCell>
        <mxCell id="fKlH0sMBrAGrj7XQ3FqQ-33" style="edgeStyle=orthogonalEdgeStyle;rounded=0;orthogonalLoop=1;jettySize=auto;html=1;" parent="1" source="fKlH0sMBrAGrj7XQ3FqQ-26" target="fKlH0sMBrAGrj7XQ3FqQ-32" edge="1">
          <mxGeometry relative="1" as="geometry" />
        </mxCell>
        <mxCell id="fKlH0sMBrAGrj7XQ3FqQ-26" value="Chaîne NULL ?" style="rhombus;whiteSpace=wrap;html=1;" parent="1" vertex="1">
          <mxGeometry x="405" y="780" width="110" height="100" as="geometry" />
        </mxCell>
        <mxCell id="fKlH0sMBrAGrj7XQ3FqQ-31" style="edgeStyle=orthogonalEdgeStyle;rounded=0;orthogonalLoop=1;jettySize=auto;html=1;" parent="1" source="fKlH0sMBrAGrj7XQ3FqQ-28" target="fKlH0sMBrAGrj7XQ3FqQ-29" edge="1">
          <mxGeometry relative="1" as="geometry" />
        </mxCell>
        <mxCell id="fKlH0sMBrAGrj7XQ3FqQ-28" value="OUI" style="ellipse;whiteSpace=wrap;html=1;" parent="1" vertex="1">
          <mxGeometry x="250" y="890" width="120" height="80" as="geometry" />
        </mxCell>
        <mxCell id="fKlH0sMBrAGrj7XQ3FqQ-88" style="edgeStyle=orthogonalEdgeStyle;rounded=0;orthogonalLoop=1;jettySize=auto;html=1;" parent="1" source="fKlH0sMBrAGrj7XQ3FqQ-29" edge="1">
          <mxGeometry relative="1" as="geometry">
            <mxPoint x="20" y="670" as="targetPoint" />
            <Array as="points">
              <mxPoint x="20" y="930" />
              <mxPoint x="20" y="770" />
            </Array>
          </mxGeometry>
        </mxCell>
        <mxCell id="fKlH0sMBrAGrj7XQ3FqQ-29" value="Print &quot;(NULL)&quot;" style="shape=hexagon;perimeter=hexagonPerimeter2;whiteSpace=wrap;html=1;fixedSize=1;" parent="1" vertex="1">
          <mxGeometry x="100" y="890" width="120" height="80" as="geometry" />
        </mxCell>
        <mxCell id="fKlH0sMBrAGrj7XQ3FqQ-35" style="edgeStyle=orthogonalEdgeStyle;rounded=0;orthogonalLoop=1;jettySize=auto;html=1;entryX=1;entryY=0.5;entryDx=0;entryDy=0;" parent="1" source="fKlH0sMBrAGrj7XQ3FqQ-32" target="fKlH0sMBrAGrj7XQ3FqQ-34" edge="1">
          <mxGeometry relative="1" as="geometry" />
        </mxCell>
        <mxCell id="fKlH0sMBrAGrj7XQ3FqQ-32" value="NON" style="ellipse;whiteSpace=wrap;html=1;" parent="1" vertex="1">
          <mxGeometry x="250" y="790" width="120" height="80" as="geometry" />
        </mxCell>
        <mxCell id="fKlH0sMBrAGrj7XQ3FqQ-34" value="Print string" style="shape=hexagon;perimeter=hexagonPerimeter2;whiteSpace=wrap;html=1;fixedSize=1;" parent="1" vertex="1">
          <mxGeometry x="100" y="790" width="120" height="80" as="geometry" />
        </mxCell>
        <mxCell id="fKlH0sMBrAGrj7XQ3FqQ-46" style="edgeStyle=orthogonalEdgeStyle;rounded=0;orthogonalLoop=1;jettySize=auto;html=1;" parent="1" source="fKlH0sMBrAGrj7XQ3FqQ-36" edge="1">
          <mxGeometry relative="1" as="geometry">
            <mxPoint x="220" y="180" as="targetPoint" />
            <Array as="points">
              <mxPoint x="20" y="510" />
            </Array>
          </mxGeometry>
        </mxCell>
        <mxCell id="fKlH0sMBrAGrj7XQ3FqQ-36" value="Print entier" style="shape=hexagon;perimeter=hexagonPerimeter2;whiteSpace=wrap;html=1;fixedSize=1;" parent="1" vertex="1">
          <mxGeometry x="100" y="470" width="120" height="80" as="geometry" />
        </mxCell>
        <mxCell id="fKlH0sMBrAGrj7XQ3FqQ-47" style="edgeStyle=orthogonalEdgeStyle;rounded=0;orthogonalLoop=1;jettySize=auto;html=1;" parent="1" source="fKlH0sMBrAGrj7XQ3FqQ-38" edge="1">
          <mxGeometry relative="1" as="geometry">
            <mxPoint x="20" y="370" as="targetPoint" />
            <Array as="points">
              <mxPoint x="20" y="615" />
              <mxPoint x="20" y="450" />
            </Array>
          </mxGeometry>
        </mxCell>
        <mxCell id="fKlH0sMBrAGrj7XQ3FqQ-38" value="Print entier base 10" style="shape=hexagon;perimeter=hexagonPerimeter2;whiteSpace=wrap;html=1;fixedSize=1;" parent="1" vertex="1">
          <mxGeometry x="100" y="575" width="120" height="80" as="geometry" />
        </mxCell>
        <mxCell id="fKlH0sMBrAGrj7XQ3FqQ-48" style="edgeStyle=orthogonalEdgeStyle;rounded=0;orthogonalLoop=1;jettySize=auto;html=1;" parent="1" source="fKlH0sMBrAGrj7XQ3FqQ-39" edge="1">
          <mxGeometry relative="1" as="geometry">
            <mxPoint x="20" y="560" as="targetPoint" />
            <Array as="points">
              <mxPoint x="20" y="720" />
              <mxPoint x="20" y="560" />
            </Array>
          </mxGeometry>
        </mxCell>
        <mxCell id="fKlH0sMBrAGrj7XQ3FqQ-39" value="Print char" style="shape=hexagon;perimeter=hexagonPerimeter2;whiteSpace=wrap;html=1;fixedSize=1;" parent="1" vertex="1">
          <mxGeometry x="100" y="680" width="120" height="80" as="geometry" />
        </mxCell>
        <mxCell id="fKlH0sMBrAGrj7XQ3FqQ-52" style="edgeStyle=orthogonalEdgeStyle;rounded=0;orthogonalLoop=1;jettySize=auto;html=1;" parent="1" source="fKlH0sMBrAGrj7XQ3FqQ-49" target="fKlH0sMBrAGrj7XQ3FqQ-50" edge="1">
          <mxGeometry relative="1" as="geometry" />
        </mxCell>
        <mxCell id="fKlH0sMBrAGrj7XQ3FqQ-49" value="Fin de la chaîne ?&lt;div&gt;&#39;\0&#39;&lt;/div&gt;" style="rhombus;whiteSpace=wrap;html=1;" parent="1" vertex="1">
          <mxGeometry x="590" width="130" height="120" as="geometry" />
        </mxCell>
        <mxCell id="fKlH0sMBrAGrj7XQ3FqQ-54" style="edgeStyle=orthogonalEdgeStyle;rounded=0;orthogonalLoop=1;jettySize=auto;html=1;entryX=0.5;entryY=0;entryDx=0;entryDy=0;" parent="1" source="fKlH0sMBrAGrj7XQ3FqQ-90" target="fKlH0sMBrAGrj7XQ3FqQ-53" edge="1">
          <mxGeometry relative="1" as="geometry" />
        </mxCell>
        <mxCell id="fKlH0sMBrAGrj7XQ3FqQ-50" value="&lt;div&gt;Appeler&lt;/div&gt;&lt;div&gt;va_end(args)&lt;/div&gt;&lt;div&gt;pour nettoyer&lt;/div&gt;" style="shape=hexagon;perimeter=hexagonPerimeter2;whiteSpace=wrap;html=1;fixedSize=1;" parent="1" vertex="1">
          <mxGeometry x="790" y="20" width="120" height="80" as="geometry" />
        </mxCell>
        <mxCell id="fKlH0sMBrAGrj7XQ3FqQ-53" value="FIN" style="rounded=1;whiteSpace=wrap;html=1;" parent="1" vertex="1">
          <mxGeometry x="990" y="160" width="80" height="40" as="geometry" />
        </mxCell>
        <mxCell id="fKlH0sMBrAGrj7XQ3FqQ-59" style="edgeStyle=orthogonalEdgeStyle;rounded=0;orthogonalLoop=1;jettySize=auto;html=1;entryX=1;entryY=0.5;entryDx=0;entryDy=0;" parent="1" source="fKlH0sMBrAGrj7XQ3FqQ-56" target="fKlH0sMBrAGrj7XQ3FqQ-58" edge="1">
          <mxGeometry relative="1" as="geometry" />
        </mxCell>
        <mxCell id="fKlH0sMBrAGrj7XQ3FqQ-56" value="Caractère&amp;nbsp;&lt;div&gt;ordinaire ?&lt;/div&gt;" style="rhombus;whiteSpace=wrap;html=1;" parent="1" vertex="1">
          <mxGeometry x="294" y="270" width="120" height="120" as="geometry" />
        </mxCell>
        <mxCell id="fKlH0sMBrAGrj7XQ3FqQ-60" style="edgeStyle=orthogonalEdgeStyle;rounded=0;orthogonalLoop=1;jettySize=auto;html=1;" parent="1" source="fKlH0sMBrAGrj7XQ3FqQ-58" edge="1">
          <mxGeometry relative="1" as="geometry">
            <mxPoint x="20" y="330" as="targetPoint" />
          </mxGeometry>
        </mxCell>
        <mxCell id="fKlH0sMBrAGrj7XQ3FqQ-58" value="Print caractère" style="shape=hexagon;perimeter=hexagonPerimeter2;whiteSpace=wrap;html=1;fixedSize=1;" parent="1" vertex="1">
          <mxGeometry x="100" y="290" width="120" height="80" as="geometry" />
        </mxCell>
        <mxCell id="fKlH0sMBrAGrj7XQ3FqQ-68" value="" style="edgeStyle=orthogonalEdgeStyle;rounded=0;orthogonalLoop=1;jettySize=auto;html=1;entryX=0;entryY=0.5;entryDx=0;entryDy=0;" parent="1" source="fKlH0sMBrAGrj7XQ3FqQ-66" target="fKlH0sMBrAGrj7XQ3FqQ-67" edge="1">
          <mxGeometry relative="1" as="geometry">
            <mxPoint x="180" y="60" as="targetPoint" />
            <mxPoint x="40" y="60" as="sourcePoint" />
          </mxGeometry>
        </mxCell>
        <mxCell id="fKlH0sMBrAGrj7XQ3FqQ-67" value="initialisation&lt;div&gt;va_start(args, format)&lt;/div&gt;" style="rounded=1;whiteSpace=wrap;html=1;" parent="1" vertex="1">
          <mxGeometry x="220" y="30" width="120" height="60" as="geometry" />
        </mxCell>
        <mxCell id="fKlH0sMBrAGrj7XQ3FqQ-69" value="" style="edgeStyle=orthogonalEdgeStyle;rounded=0;orthogonalLoop=1;jettySize=auto;html=1;" parent="1" source="fKlH0sMBrAGrj7XQ3FqQ-1" target="fKlH0sMBrAGrj7XQ3FqQ-66" edge="1">
          <mxGeometry relative="1" as="geometry">
            <mxPoint x="180" y="60" as="targetPoint" />
            <mxPoint x="10" y="60" as="sourcePoint" />
          </mxGeometry>
        </mxCell>
        <mxCell id="fKlH0sMBrAGrj7XQ3FqQ-66" value="Déclarer va_list args" style="rounded=1;whiteSpace=wrap;html=1;" parent="1" vertex="1">
          <mxGeometry x="60" y="30" width="120" height="60" as="geometry" />
        </mxCell>
        <mxCell id="fKlH0sMBrAGrj7XQ3FqQ-72" value="" style="edgeStyle=orthogonalEdgeStyle;rounded=0;orthogonalLoop=1;jettySize=auto;html=1;entryX=1;entryY=0.5;entryDx=0;entryDy=0;exitX=1;exitY=0.5;exitDx=0;exitDy=0;" parent="1" source="fKlH0sMBrAGrj7XQ3FqQ-14" target="fKlH0sMBrAGrj7XQ3FqQ-16" edge="1">
          <mxGeometry relative="1" as="geometry">
            <mxPoint x="850" y="450" as="sourcePoint" />
            <mxPoint x="660" y="840" as="targetPoint" />
            <Array as="points" />
          </mxGeometry>
        </mxCell>
        <mxCell id="fKlH0sMBrAGrj7XQ3FqQ-16" value="%d" style="rounded=1;whiteSpace=wrap;html=1;" parent="1" vertex="1">
          <mxGeometry x="820" y="480" width="120" height="60" as="geometry" />
        </mxCell>
        <mxCell id="fKlH0sMBrAGrj7XQ3FqQ-18" value="%i" style="rounded=1;whiteSpace=wrap;html=1;" parent="1" vertex="1">
          <mxGeometry x="820" y="585" width="120" height="60" as="geometry" />
        </mxCell>
        <mxCell id="fKlH0sMBrAGrj7XQ3FqQ-19" value="%c" style="rounded=1;whiteSpace=wrap;html=1;" parent="1" vertex="1">
          <mxGeometry x="820" y="690" width="120" height="60" as="geometry" />
        </mxCell>
        <mxCell id="fKlH0sMBrAGrj7XQ3FqQ-79" value="" style="edgeStyle=orthogonalEdgeStyle;rounded=0;orthogonalLoop=1;jettySize=auto;html=1;entryX=1;entryY=0.5;entryDx=0;entryDy=0;" parent="1" source="fKlH0sMBrAGrj7XQ3FqQ-80" target="fKlH0sMBrAGrj7XQ3FqQ-65" edge="1">
          <mxGeometry relative="1" as="geometry">
            <mxPoint x="680" y="510" as="sourcePoint" />
            <mxPoint x="220" y="510" as="targetPoint" />
          </mxGeometry>
        </mxCell>
        <mxCell id="fKlH0sMBrAGrj7XQ3FqQ-65" value="Conversion&lt;div&gt;entier&lt;br&gt;&lt;div&gt;en chaîne&lt;/div&gt;&lt;/div&gt;" style="shape=hexagon;perimeter=hexagonPerimeter2;whiteSpace=wrap;html=1;fixedSize=1;" parent="1" vertex="1">
          <mxGeometry x="320" y="470" width="120" height="80" as="geometry" />
        </mxCell>
        <mxCell id="fKlH0sMBrAGrj7XQ3FqQ-81" value="" style="edgeStyle=orthogonalEdgeStyle;rounded=0;orthogonalLoop=1;jettySize=auto;html=1;entryX=1;entryY=0.5;entryDx=0;entryDy=0;" parent="1" source="fKlH0sMBrAGrj7XQ3FqQ-113" target="fKlH0sMBrAGrj7XQ3FqQ-80" edge="1">
          <mxGeometry relative="1" as="geometry">
            <mxPoint x="680" y="510" as="sourcePoint" />
            <mxPoint x="420" y="510" as="targetPoint" />
          </mxGeometry>
        </mxCell>
        <mxCell id="fKlH0sMBrAGrj7XQ3FqQ-80" value="Accéder à l&#39;argument&lt;div&gt;avec&lt;/div&gt;&lt;div&gt;va_arg(arg, int)&lt;/div&gt;" style="shape=hexagon;perimeter=hexagonPerimeter2;whiteSpace=wrap;html=1;fixedSize=1;" parent="1" vertex="1">
          <mxGeometry x="540" y="470" width="120" height="80" as="geometry" />
        </mxCell>
        <mxCell id="fKlH0sMBrAGrj7XQ3FqQ-83" value="" style="edgeStyle=orthogonalEdgeStyle;rounded=0;orthogonalLoop=1;jettySize=auto;html=1;entryX=1;entryY=0.5;entryDx=0;entryDy=0;" parent="1" source="fKlH0sMBrAGrj7XQ3FqQ-18" target="fKlH0sMBrAGrj7XQ3FqQ-82" edge="1">
          <mxGeometry relative="1" as="geometry">
            <mxPoint x="680" y="615" as="sourcePoint" />
            <mxPoint x="500" y="615" as="targetPoint" />
          </mxGeometry>
        </mxCell>
        <mxCell id="ggIqziUd1L6ZRsZxqIfa-1" style="edgeStyle=orthogonalEdgeStyle;rounded=0;orthogonalLoop=1;jettySize=auto;html=1;entryX=1;entryY=0.5;entryDx=0;entryDy=0;" edge="1" parent="1" source="fKlH0sMBrAGrj7XQ3FqQ-82" target="fKlH0sMBrAGrj7XQ3FqQ-64">
          <mxGeometry relative="1" as="geometry" />
        </mxCell>
        <mxCell id="fKlH0sMBrAGrj7XQ3FqQ-82" value="Accéder à l&#39;argument&lt;div&gt;avec&lt;/div&gt;&lt;div&gt;va_arg(args, int)&lt;/div&gt;" style="shape=hexagon;perimeter=hexagonPerimeter2;whiteSpace=wrap;html=1;fixedSize=1;" parent="1" vertex="1">
          <mxGeometry x="540" y="575" width="120" height="80" as="geometry" />
        </mxCell>
        <mxCell id="fKlH0sMBrAGrj7XQ3FqQ-89" style="edgeStyle=orthogonalEdgeStyle;rounded=0;orthogonalLoop=1;jettySize=auto;html=1;entryX=1;entryY=0.5;entryDx=0;entryDy=0;" parent="1" source="fKlH0sMBrAGrj7XQ3FqQ-84" target="fKlH0sMBrAGrj7XQ3FqQ-61" edge="1">
          <mxGeometry relative="1" as="geometry" />
        </mxCell>
        <mxCell id="fKlH0sMBrAGrj7XQ3FqQ-84" value="Accéder à l&#39;argument&lt;div&gt;avec&lt;/div&gt;&lt;div&gt;va_arg(args, int)&lt;/div&gt;" style="shape=hexagon;perimeter=hexagonPerimeter2;whiteSpace=wrap;html=1;fixedSize=1;" parent="1" vertex="1">
          <mxGeometry x="540" y="680" width="120" height="80" as="geometry" />
        </mxCell>
        <mxCell id="fKlH0sMBrAGrj7XQ3FqQ-86" value="" style="edgeStyle=orthogonalEdgeStyle;rounded=0;orthogonalLoop=1;jettySize=auto;html=1;entryX=1;entryY=0.5;entryDx=0;entryDy=0;" parent="1" source="fKlH0sMBrAGrj7XQ3FqQ-19" target="fKlH0sMBrAGrj7XQ3FqQ-84" edge="1">
          <mxGeometry relative="1" as="geometry">
            <mxPoint x="680" y="720" as="sourcePoint" />
            <mxPoint x="220" y="720" as="targetPoint" />
          </mxGeometry>
        </mxCell>
        <mxCell id="fKlH0sMBrAGrj7XQ3FqQ-61" value="Promouvoir&lt;div&gt;char en int&lt;/div&gt;" style="shape=hexagon;perimeter=hexagonPerimeter2;whiteSpace=wrap;html=1;fixedSize=1;" parent="1" vertex="1">
          <mxGeometry x="320" y="680" width="120" height="80" as="geometry" />
        </mxCell>
        <mxCell id="fKlH0sMBrAGrj7XQ3FqQ-64" value="Conversion&lt;div&gt;entier base 10&lt;br&gt;&lt;div&gt;en chaîne&lt;/div&gt;&lt;/div&gt;" style="shape=hexagon;perimeter=hexagonPerimeter2;whiteSpace=wrap;html=1;fixedSize=1;" parent="1" vertex="1">
          <mxGeometry x="320" y="575" width="120" height="80" as="geometry" />
        </mxCell>
        <mxCell id="fKlH0sMBrAGrj7XQ3FqQ-91" value="" style="edgeStyle=orthogonalEdgeStyle;rounded=0;orthogonalLoop=1;jettySize=auto;html=1;entryX=0;entryY=0.5;entryDx=0;entryDy=0;" parent="1" source="fKlH0sMBrAGrj7XQ3FqQ-50" target="fKlH0sMBrAGrj7XQ3FqQ-90" edge="1">
          <mxGeometry relative="1" as="geometry">
            <mxPoint x="850" y="100" as="sourcePoint" />
            <mxPoint x="850" y="210" as="targetPoint" />
          </mxGeometry>
        </mxCell>
        <mxCell id="fKlH0sMBrAGrj7XQ3FqQ-90" value="print (&quot;\n&quot;)" style="shape=hexagon;perimeter=hexagonPerimeter2;whiteSpace=wrap;html=1;fixedSize=1;" parent="1" vertex="1">
          <mxGeometry x="970" y="20" width="120" height="80" as="geometry" />
        </mxCell>
        <mxCell id="fKlH0sMBrAGrj7XQ3FqQ-93" value="" style="edgeStyle=orthogonalEdgeStyle;rounded=0;orthogonalLoop=1;jettySize=auto;html=1;entryX=1;entryY=0.5;entryDx=0;entryDy=0;" parent="1" source="fKlH0sMBrAGrj7XQ3FqQ-117" target="fKlH0sMBrAGrj7XQ3FqQ-85" edge="1">
          <mxGeometry relative="1" as="geometry">
            <mxPoint x="680" y="830" as="sourcePoint" />
            <mxPoint x="515" y="840" as="targetPoint" />
          </mxGeometry>
        </mxCell>
        <mxCell id="fKlH0sMBrAGrj7XQ3FqQ-85" value="Accéder à l&#39;argument&lt;div&gt;avec&lt;/div&gt;&lt;div&gt;va_arg(args, char *)&lt;/div&gt;" style="shape=hexagon;perimeter=hexagonPerimeter2;whiteSpace=wrap;html=1;fixedSize=1;" parent="1" vertex="1">
          <mxGeometry x="540" y="790" width="120" height="80" as="geometry" />
        </mxCell>
        <mxCell id="fKlH0sMBrAGrj7XQ3FqQ-99" style="edgeStyle=orthogonalEdgeStyle;rounded=0;orthogonalLoop=1;jettySize=auto;html=1;" parent="1" source="fKlH0sMBrAGrj7XQ3FqQ-96" target="fKlH0sMBrAGrj7XQ3FqQ-130" edge="1">
          <mxGeometry relative="1" as="geometry">
            <mxPoint x="220" y="1110" as="targetPoint" />
          </mxGeometry>
        </mxCell>
        <mxCell id="fKlH0sMBrAGrj7XQ3FqQ-96" value="%?&lt;div&gt;(spec inconnu)&lt;/div&gt;" style="rounded=1;whiteSpace=wrap;html=1;" parent="1" vertex="1">
          <mxGeometry x="820" y="1099" width="120" height="60" as="geometry" />
        </mxCell>
        <mxCell id="fKlH0sMBrAGrj7XQ3FqQ-102" style="edgeStyle=orthogonalEdgeStyle;rounded=0;orthogonalLoop=1;jettySize=auto;html=1;" parent="1" source="fKlH0sMBrAGrj7XQ3FqQ-98" edge="1">
          <mxGeometry relative="1" as="geometry">
            <mxPoint x="20" y="780" as="targetPoint" />
            <Array as="points">
              <mxPoint x="20" y="1030" />
              <mxPoint x="20" y="880" />
            </Array>
          </mxGeometry>
        </mxCell>
        <mxCell id="fKlH0sMBrAGrj7XQ3FqQ-98" value="print &quot;(Error)&quot;" style="shape=hexagon;perimeter=hexagonPerimeter2;whiteSpace=wrap;html=1;fixedSize=1;" parent="1" vertex="1">
          <mxGeometry x="100" y="990" width="120" height="80" as="geometry" />
        </mxCell>
        <mxCell id="fKlH0sMBrAGrj7XQ3FqQ-109" style="edgeStyle=orthogonalEdgeStyle;rounded=0;orthogonalLoop=1;jettySize=auto;html=1;entryX=0.25;entryY=1;entryDx=0;entryDy=0;exitX=1;exitY=0.5;exitDx=0;exitDy=0;" parent="1" target="fKlH0sMBrAGrj7XQ3FqQ-4" edge="1">
          <mxGeometry relative="1" as="geometry">
            <mxPoint x="220" y="180" as="sourcePoint" />
          </mxGeometry>
        </mxCell>
        <mxCell id="fKlH0sMBrAGrj7XQ3FqQ-114" value="" style="edgeStyle=orthogonalEdgeStyle;rounded=0;orthogonalLoop=1;jettySize=auto;html=1;entryX=1;entryY=0.5;entryDx=0;entryDy=0;" parent="1" source="fKlH0sMBrAGrj7XQ3FqQ-16" target="fKlH0sMBrAGrj7XQ3FqQ-113" edge="1">
          <mxGeometry relative="1" as="geometry">
            <mxPoint x="820" y="510" as="sourcePoint" />
            <mxPoint x="660" y="510" as="targetPoint" />
          </mxGeometry>
        </mxCell>
        <mxCell id="fKlH0sMBrAGrj7XQ3FqQ-121" style="edgeStyle=orthogonalEdgeStyle;rounded=0;orthogonalLoop=1;jettySize=auto;html=1;" parent="1" source="fKlH0sMBrAGrj7XQ3FqQ-113" edge="1">
          <mxGeometry relative="1" as="geometry">
            <mxPoint x="750" y="1030" as="targetPoint" />
          </mxGeometry>
        </mxCell>
        <mxCell id="fKlH0sMBrAGrj7XQ3FqQ-113" value="Vérif&lt;div&gt;arg&lt;/div&gt;&lt;div&gt;compatible&lt;/div&gt;" style="rhombus;whiteSpace=wrap;html=1;" parent="1" vertex="1">
          <mxGeometry x="710" y="470" width="80" height="80" as="geometry" />
        </mxCell>
        <mxCell id="fKlH0sMBrAGrj7XQ3FqQ-115" value="Vérif&lt;div&gt;arg&lt;/div&gt;&lt;div&gt;compatible&lt;/div&gt;" style="rhombus;whiteSpace=wrap;html=1;" parent="1" vertex="1">
          <mxGeometry x="710" y="575" width="80" height="80" as="geometry" />
        </mxCell>
        <mxCell id="fKlH0sMBrAGrj7XQ3FqQ-116" value="Vérif&lt;div&gt;arg&lt;/div&gt;&lt;div&gt;compatible&lt;/div&gt;" style="rhombus;whiteSpace=wrap;html=1;" parent="1" vertex="1">
          <mxGeometry x="710" y="680" width="80" height="80" as="geometry" />
        </mxCell>
        <mxCell id="fKlH0sMBrAGrj7XQ3FqQ-118" value="" style="edgeStyle=orthogonalEdgeStyle;rounded=0;orthogonalLoop=1;jettySize=auto;html=1;entryX=1;entryY=0.5;entryDx=0;entryDy=0;" parent="1" source="fKlH0sMBrAGrj7XQ3FqQ-20" target="fKlH0sMBrAGrj7XQ3FqQ-117" edge="1">
          <mxGeometry relative="1" as="geometry">
            <mxPoint x="820" y="830" as="sourcePoint" />
            <mxPoint x="660" y="830" as="targetPoint" />
          </mxGeometry>
        </mxCell>
        <mxCell id="fKlH0sMBrAGrj7XQ3FqQ-117" value="Vérif&lt;div&gt;arg&lt;/div&gt;&lt;div&gt;compatible&lt;/div&gt;" style="rhombus;whiteSpace=wrap;html=1;" parent="1" vertex="1">
          <mxGeometry x="710" y="790" width="80" height="80" as="geometry" />
        </mxCell>
        <mxCell id="fKlH0sMBrAGrj7XQ3FqQ-129" style="edgeStyle=orthogonalEdgeStyle;rounded=0;orthogonalLoop=1;jettySize=auto;html=1;entryX=1;entryY=0.5;entryDx=0;entryDy=0;" parent="1" source="fKlH0sMBrAGrj7XQ3FqQ-122" target="fKlH0sMBrAGrj7XQ3FqQ-98" edge="1">
          <mxGeometry relative="1" as="geometry">
            <mxPoint x="700" y="1050" as="targetPoint" />
            <Array as="points">
              <mxPoint x="750" y="1030" />
            </Array>
          </mxGeometry>
        </mxCell>
        <mxCell id="fKlH0sMBrAGrj7XQ3FqQ-122" value="argument incompatible&lt;div&gt;au type&lt;/div&gt;" style="rounded=1;whiteSpace=wrap;html=1;" parent="1" vertex="1">
          <mxGeometry x="690" y="910" width="120" height="60" as="geometry" />
        </mxCell>
        <mxCell id="fKlH0sMBrAGrj7XQ3FqQ-127" style="edgeStyle=orthogonalEdgeStyle;rounded=0;orthogonalLoop=1;jettySize=auto;html=1;entryX=0.5;entryY=1;entryDx=0;entryDy=0;" parent="1" source="fKlH0sMBrAGrj7XQ3FqQ-125" target="fKlH0sMBrAGrj7XQ3FqQ-126" edge="1">
          <mxGeometry relative="1" as="geometry" />
        </mxCell>
        <mxCell id="fKlH0sMBrAGrj7XQ3FqQ-125" value="Caractère suivant&lt;div&gt;existe ?&lt;/div&gt;" style="rhombus;whiteSpace=wrap;html=1;" parent="1" vertex="1">
          <mxGeometry x="670" y="270" width="120" height="120" as="geometry" />
        </mxCell>
        <mxCell id="fKlH0sMBrAGrj7XQ3FqQ-128" style="edgeStyle=orthogonalEdgeStyle;rounded=0;orthogonalLoop=1;jettySize=auto;html=1;entryX=0.5;entryY=1;entryDx=0;entryDy=0;" parent="1" source="fKlH0sMBrAGrj7XQ3FqQ-126" target="fKlH0sMBrAGrj7XQ3FqQ-49" edge="1">
          <mxGeometry relative="1" as="geometry" />
        </mxCell>
        <mxCell id="fKlH0sMBrAGrj7XQ3FqQ-126" value="NON" style="ellipse;whiteSpace=wrap;html=1;" parent="1" vertex="1">
          <mxGeometry x="820" y="200" width="120" height="80" as="geometry" />
        </mxCell>
        <mxCell id="fKlH0sMBrAGrj7XQ3FqQ-131" style="edgeStyle=orthogonalEdgeStyle;rounded=0;orthogonalLoop=1;jettySize=auto;html=1;" parent="1" source="fKlH0sMBrAGrj7XQ3FqQ-130" edge="1">
          <mxGeometry relative="1" as="geometry">
            <mxPoint x="20" y="1030" as="targetPoint" />
          </mxGeometry>
        </mxCell>
        <mxCell id="fKlH0sMBrAGrj7XQ3FqQ-130" value="print &#39;%&#39; et ignore le&lt;div&gt;caractère suivant&lt;/div&gt;" style="shape=hexagon;perimeter=hexagonPerimeter2;whiteSpace=wrap;html=1;fixedSize=1;" parent="1" vertex="1">
          <mxGeometry x="100" y="1089" width="120" height="80" as="geometry" />
        </mxCell>
        <mxCell id="ggIqziUd1L6ZRsZxqIfa-5" style="edgeStyle=orthogonalEdgeStyle;rounded=0;orthogonalLoop=1;jettySize=auto;html=1;entryX=1;entryY=0.5;entryDx=0;entryDy=0;" edge="1" parent="1" source="ggIqziUd1L6ZRsZxqIfa-2" target="ggIqziUd1L6ZRsZxqIfa-3">
          <mxGeometry relative="1" as="geometry" />
        </mxCell>
        <mxCell id="ggIqziUd1L6ZRsZxqIfa-2" value="%%" style="rounded=1;whiteSpace=wrap;html=1;" vertex="1" parent="1">
          <mxGeometry x="820" y="1200" width="120" height="60" as="geometry" />
        </mxCell>
        <mxCell id="ggIqziUd1L6ZRsZxqIfa-6" style="edgeStyle=orthogonalEdgeStyle;rounded=0;orthogonalLoop=1;jettySize=auto;html=1;" edge="1" parent="1" source="ggIqziUd1L6ZRsZxqIfa-3">
          <mxGeometry relative="1" as="geometry">
            <mxPoint x="20" y="1130" as="targetPoint" />
          </mxGeometry>
        </mxCell>
        <mxCell id="ggIqziUd1L6ZRsZxqIfa-3" value="print &#39;%&#39;" style="shape=hexagon;perimeter=hexagonPerimeter2;whiteSpace=wrap;html=1;fixedSize=1;" vertex="1" parent="1">
          <mxGeometry x="100" y="1190" width="120" height="80" as="geometry" />
        </mxCell>
      </root>
    </mxGraphModel>
  </diagram>
</mxfile>
